# xmcd
#
# Track frame offsets:
#	150
#	12642
#	23920
#	38993
#	52326
#	63939
#	80789
#	102294
#	117451
#	131362
#	143543
#	156862
#	184983
#
# Disc length: 2625 seconds
#
# Revision: 1
# Processed by: cddbd v1.5.2PL0 Copyright (c) Steve Scherf et al.
# Submitted via: audiograbber 1.83.01
#
DISCID=b90a3f0d
DTITLE=Rattlesnake Deer - 637 Texas Rattlesnake Rattles
DYEAR=2007
DGENRE=Bastard Country
TTITLE0=Try Try Try
TTITLE1=21st and Main
TTITLE2=Lancaster Winds
TTITLE3=Bad Blood
TTITLE4=I Think I'll Get Drunk
TTITLE5=Insufferable
TTITLE6=Untitled
TTITLE7=Shitty Truck
TTITLE8=Soil Dove
TTITLE9=Oklahoma
TTITLE10=Murder Ballad
TTITLE11=Of Silk and Lace
TTITLE12=My Friend Dirt
EXTD=
EXTT0=
EXTT1=
EXTT2=
EXTT3=
EXTT4=
EXTT5=
EXTT6=
EXTT7=
EXTT8=
EXTT9=
EXTT10=
EXTT11=
EXTT12=
PLAYORDER=
